HIERARCHY
ROOT Hips
{
	OFFSET -0.001795 -0.223333 0.028219
	CHANNELS 6 Xposition Yposition Zposition Zrotation Yrotation Xrotation 
	JOINT LeftUpLeg
	{
		OFFSET 0.069520 -0.091406 -0.006815
		CHANNELS 3 Zrotation Yrotation Xrotation
		JOINT LeftLeg
		{
			OFFSET 0.034277 -0.375199 -0.004496
			CHANNELS 3 Zrotation Yrotation Xrotation
			JOINT LeftFoot
			{
				OFFSET -0.013596 -0.397961 -0.043693
				CHANNELS 3 Zrotation Yrotation Xrotation
				JOINT LeftToe
				{
					OFFSET 0.026358 -0.055791 0.119288
					CHANNELS 3 Zrotation Yrotation Xrotation
					End Site
					{
						OFFSET 0.000000 0.000000 0.000000
					}
				}
			}
		}
	}
	JOINT RightUpLeg
	{
		OFFSET -0.067670 -0.090522 -0.004320
		CHANNELS 3 Zrotation Yrotation Xrotation
		JOINT RightLeg
		{
			OFFSET -0.038290 -0.382569 -0.008850
			CHANNELS 3 Zrotation Yrotation Xrotation
			JOINT RightFoot
			{
				OFFSET 0.015774 -0.398415 -0.042312
				CHANNELS 3 Zrotation Yrotation Xrotation
				JOINT RightToe
				{
					OFFSET -0.025372 -0.048144 0.123348
					CHANNELS 3 Zrotation Yrotation Xrotation
					End Site
					{
						OFFSET 0.000000 0.000000 0.000000
					}
				}
			}
		}
	}
	JOINT Spine
	{
		OFFSET -0.002533 0.108963 -0.026696
		CHANNELS 3 Zrotation Yrotation Xrotation
		JOINT Spine1
		{
			OFFSET 0.005487 0.135180 0.001092
			CHANNELS 3 Zrotation Yrotation Xrotation
			JOINT Spine2
			{
				OFFSET 0.001457 0.052922 0.025425
				CHANNELS 3 Zrotation Yrotation Xrotation
				JOINT Neck
				{
					OFFSET -0.002778 0.213870 -0.042857
					CHANNELS 3 Zrotation Yrotation Xrotation
					JOINT Head
					{
						OFFSET 0.005152 0.064970 0.051349
						CHANNELS 3 Zrotation Yrotation Xrotation
						End Site
						{
							OFFSET 0.000000 0.000000 0.000000
						}
					}
				}
				JOINT LeftShoulder
				{
					OFFSET 0.078845 0.121749 -0.034090
					CHANNELS 3 Zrotation Yrotation Xrotation
					JOINT LeftArm
					{
						OFFSET 0.090977 0.030469 -0.008868
						CHANNELS 3 Zrotation Yrotation Xrotation
						JOINT LeftForeArm
						{
							OFFSET 0.259612 -0.012772 -0.027456
							CHANNELS 3 Zrotation Yrotation Xrotation
							JOINT LeftHand
							{
								OFFSET 0.249234 0.008986 -0.001171
								CHANNELS 3 Zrotation Yrotation Xrotation
								End Site
								{
									OFFSET 0.000000 0.000000 0.000000
								}
							}
						}
					}
				}
				JOINT RightShoulder
				{
					OFFSET -0.081759 0.118833 -0.038615
					CHANNELS 3 Zrotation Yrotation Xrotation
					JOINT RightArm
					{
						OFFSET -0.096012 0.032551 -0.009143
						CHANNELS 3 Zrotation Yrotation Xrotation
						JOINT RightForeArm
						{
							OFFSET -0.253742 -0.013329 -0.021401
							CHANNELS 3 Zrotation Yrotation Xrotation
							JOINT RightHand
							{
								OFFSET -0.255298 0.007772 -0.005559
								CHANNELS 3 Zrotation Yrotation Xrotation
								End Site
								{
									OFFSET 0.000000 0.000000 0.000000
								}
							}
						}
					}
				}
			}
		}
	}
}
MOTION
Frames: 18
Frame Time: 0.050000
0.009171 0.971211 0.028527 -0.824395 -10.696644 1.103510 4.129027 0.160736 1.979306 2.551067 -0.113234 -3.728697 -1.882705 0.112943 11.773924 0.000000 0.000000 0.000000 -0.733298 0.156438 -1.449280 -4.771433 0.305491 -1.538738 5.677119 5.827715 10.028739 0.000000 0.000000 0.000000 7.399587 -0.598056 5.478712 -4.581409 1.983149 -4.531702 -10.190747 7.862072 -1.212118 13.167184 -11.017343 1.204184 0.000000 0.000000 0.000000 11.845360 3.323038 1.045852 -17.064357 -40.780925 2.049785 74.671417 -25.148732 -19.779553 0.000000 0.000000 0.000000 -29.054682 -9.599490 0.608280 -16.549217 29.570801 -4.082156 -70.559947 3.103910 1.774981 0.000000 0.000000 0.000000 
0.009830 0.971035 0.030909 -1.178254 -8.760536 1.042703 4.948048 0.132858 1.981258 2.256019 -0.102410 -3.303234 -2.100425 -0.277566 10.960369 0.000000 0.000000 0.000000 -0.257865 0.005683 0.042995 -4.707238 0.205760 -2.915370 5.202193 5.197087 9.901422 0.000000 0.000000 0.000000 6.992810 -0.599771 5.582590 -3.609523 1.569440 -4.875205 -8.805914 6.616920 -1.585374 11.048093 -9.131062 1.054961 0.000000 0.000000 0.000000 16.893672 2.188066 2.010601 -3.701623 -45.684629 -1.914368 73.883467 -8.977474 -7.670591 0.000000 0.000000 0.000000 -30.378499 -9.017752 1.027705 -17.117161 31.932727 -4.714089 -68.516357 0.027259 3.456412 0.000000 0.000000 0.000000 
0.010994 0.970209 0.033165 -1.746728 -7.855893 0.945267 5.861168 0.108056 1.874998 1.820736 -0.059289 -3.294741 -2.102215 -0.234100 10.749342 0.000000 0.000000 0.000000 0.207637 -0.113233 1.102963 -4.679055 0.149036 -3.711114 5.070846 5.053895 9.901526 0.000000 0.000000 0.000000 6.708100 -0.571754 5.389945 -3.202518 1.412984 -4.506663 -7.019647 6.241609 -2.630855 10.559229 -8.715096 1.255273 0.000000 0.000000 0.000000 21.769757 1.528338 2.811802 10.408581 -46.929418 -6.977551 69.868459 5.122589 2.263100 0.000000 0.000000 0.000000 -30.046041 -8.874618 1.152868 -17.850863 34.238447 -5.388538 -66.700582 -1.237233 4.005040 0.000000 0.000000 0.000000 
0.013313 0.969819 0.034916 -1.896672 -6.674257 1.234108 6.255799 0.064822 1.531418 1.412032 -0.011837 -3.426788 -1.971614 0.134854 10.776105 0.000000 0.000000 0.000000 0.280909 -0.121465 1.137093 -4.655515 0.165880 -3.552881 4.710746 4.344586 10.099360 0.000000 0.000000 0.000000 6.145082 -0.486172 4.596537 -2.286381 1.027084 -4.580227 -6.227873 5.748217 -2.782262 9.386084 -7.818258 1.603266 0.000000 0.000000 0.000000 25.926928 1.016434 3.410422 16.341524 -45.878823 -8.887428 68.263521 12.327810 6.798809 0.000000 0.000000 0.000000 -29.976764 -8.753004 1.202833 -17.198655 35.776749 -5.578398 -65.499117 -1.810636 4.210788 0.000000 0.000000 0.000000 
0.016627 0.968989 0.035769 -1.848591 -6.712572 0.831024 6.227642 0.059122 1.208432 1.183699 -0.027987 -2.634675 -1.574579 0.631885 10.212829 0.000000 0.000000 0.000000 -0.041561 -0.116820 1.256770 -4.539998 0.211556 -2.862926 4.334125 3.626011 10.000694 0.000000 0.000000 0.000000 5.994886 -0.520285 5.170576 -2.112568 0.943193 -5.528988 -4.980010 6.230505 -2.469633 9.144033 -7.304480 0.267011 0.000000 0.000000 0.000000 27.395135 1.167952 3.579814 16.911068 -44.612831 -8.773052 68.125313 13.022132 7.145180 0.000000 0.000000 0.000000 -29.257065 -9.066250 1.025718 -16.160169 36.740010 -5.507946 -67.049674 -1.153159 3.941831 0.000000 0.000000 0.000000 
0.021068 0.967230 0.035472 -1.330885 -7.321661 0.039458 5.242375 0.093963 1.373506 1.425262 -0.116814 -1.276167 -1.498443 0.289371 8.994505 0.000000 0.000000 0.000000 -0.976791 -0.088105 1.462732 -4.159452 0.260018 -1.805114 4.011446 3.017320 9.770128 0.000000 0.000000 0.000000 5.994613 -0.594014 6.284880 -1.838084 0.821886 -5.174178 -4.589722 6.910171 -3.600107 8.789988 -6.788929 -0.602298 0.000000 0.000000 0.000000 26.406726 2.069795 3.518463 11.697537 -44.505092 -6.992403 68.589895 8.398821 4.073274 0.000000 0.000000 0.000000 -28.405742 -9.054406 0.884305 -14.353612 38.024489 -5.222655 -68.124916 -1.152508 4.154244 0.000000 0.000000 0.000000 
0.025782 0.962854 0.033982 -1.161238 -7.395090 -0.667365 5.086934 0.073088 0.745116 1.383009 -0.213796 1.044658 -1.213283 0.513933 8.153444 0.000000 0.000000 0.000000 -1.538723 -0.011231 0.818434 -3.431686 0.385395 0.809155 3.089677 2.189565 7.944229 0.000000 0.000000 0.000000 7.005962 -0.679069 6.820451 -1.934876 0.866048 -4.949860 -4.858490 7.488357 -3.476516 8.692079 -6.621544 -1.056716 0.000000 0.000000 0.000000 22.984492 2.257618 3.122221 3.196985 -43.057070 -4.023074 70.397064 -2.363303 -3.187679 0.000000 0.000000 0.000000 -25.325397 -8.827340 0.278659 -13.122880 39.875572 -5.108365 -72.815469 -0.684895 4.370820 0.000000 0.000000 0.000000 
0.030455 0.954817 0.031771 -0.858229 -7.871786 -2.041524 4.576218 0.048698 -0.086590 0.807059 -0.296649 5.842441 -0.848433 -0.104681 4.474829 0.000000 0.000000 0.000000 -2.645439 0.112458 -0.343269 -1.920955 0.531308 5.564788 1.562725 0.282298 5.518315 0.000000 0.000000 0.000000 7.870687 -0.893901 9.004843 -2.093948 0.926512 -5.488100 -5.470187 8.791559 -2.970207 10.004226 -7.382297 -2.262887 0.000000 0.000000 0.000000 16.972355 2.509852 2.336912 -7.330431 -40.858709 -0.797744 70.408388 -18.542684 -14.495858 0.000000 0.000000 0.000000 -19.997926 -9.902576 -0.925385 -11.736281 40.948740 -4.728719 -79.582713 0.195057 4.553838 0.000000 0.000000 0.000000 
0.034637 0.944473 0.030330 -0.331483 -7.819515 -3.767096 4.476563 0.045167 -0.529430 -0.697828 -0.091056 10.760680 -0.335132 -0.465547 0.642558 0.000000 0.000000 0.000000 -3.866396 0.164293 -0.813539 -1.143326 0.741390 10.451994 0.644937 0.261044 2.082708 0.000000 0.000000 0.000000 8.224475 -0.941204 9.793346 -1.559205 0.705211 -4.448113 -6.476841 9.014797 -2.161161 10.028384 -7.054012 -3.737293 0.000000 0.000000 0.000000 11.639784 3.464305 1.265806 -19.868823 -37.862273 2.364086 67.279862 -34.103946 -24.085762 0.000000 0.000000 0.000000 -15.275622 -8.848420 -1.470523 -8.349428 41.170003 -3.776199 -88.282590 2.599646 3.047828 0.000000 0.000000 0.000000 
0.038263 0.935150 0.029910 0.354310 -7.489444 -4.972312 4.169031 0.024491 -0.964409 -1.825340 0.167415 14.302605 -0.157914 -1.065190 -1.823281 0.000000 0.000000 0.000000 -4.825857 0.239552 -2.089696 -0.345732 0.894400 15.020505 -0.340658 -0.695079 -0.252446 0.000000 0.000000 0.000000 8.677587 -0.955497 10.001991 -1.477748 0.678007 -3.756912 -7.582841 8.647953 -0.903063 11.564248 -7.730719 -5.802713 0.000000 0.000000 0.000000 4.585273 2.515739 0.131345 -25.755104 -33.125839 3.095852 63.334950 -46.677921 -30.311212 0.000000 0.000000 0.000000 -10.473177 -7.845073 -1.792704 -5.688008 41.447509 -3.139137 -98.483193 5.672753 -0.262437 0.000000 0.000000 0.000000 
0.041148 0.933192 0.030371 0.882303 -7.247621 -5.224049 3.740077 0.000961 -1.153594 -2.142866 0.254942 15.565597 0.038904 -1.159640 -3.092427 0.000000 0.000000 0.000000 -5.672793 0.263913 -2.511813 0.221435 0.833482 16.131116 -1.160177 -1.729476 -1.992152 0.000000 0.000000 0.000000 8.718561 -0.948916 9.973262 -1.522174 0.700552 -3.786638 -8.325389 9.019720 -0.073621 12.256178 -8.168359 -6.193057 0.000000 0.000000 0.000000 1.528332 1.180111 -0.056892 -28.355691 -31.583749 3.299354 61.612178 -52.687999 -33.399630 0.000000 0.000000 0.000000 -9.267838 -7.890055 -2.017293 -1.213799 41.903190 -1.823046 -105.361704 8.925861 -4.143417 0.000000 0.000000 0.000000 
0.043040 0.938710 0.030828 1.316274 -6.447352 -4.910414 3.172568 -0.025736 -1.164809 -1.691187 0.104152 14.249791 -0.191213 -0.889587 -1.179327 0.000000 0.000000 0.000000 -6.336588 0.229342 -1.656536 -0.300858 0.791185 13.973255 -1.213214 -2.067154 -1.701012 0.000000 0.000000 0.000000 8.547739 -0.814280 8.576348 -1.612099 0.748716 -4.009624 -8.625195 9.499058 1.123124 12.621781 -8.207395 -7.048441 0.000000 0.000000 0.000000 2.869692 1.099286 0.233252 -26.949143 -35.141995 3.537382 68.446809 -51.081366 -36.904668 0.000000 0.000000 0.000000 -11.617249 -7.827293 -1.942389 -0.031907 41.555618 -1.349271 -105.752353 9.663439 -4.356931 0.000000 0.000000 0.000000 
0.043611 0.949628 0.030798 1.554419 -5.374569 -3.398762 2.357349 -0.072141 -1.270482 -0.564027 -0.166632 11.125433 -0.653491 -0.879849 1.232849 0.000000 0.000000 0.000000 -6.204511 0.230843 -1.487672 -0.944014 0.664061 10.227234 -1.068015 -3.382531 1.339969 0.000000 0.000000 0.000000 8.423938 -0.625634 6.274367 -1.973664 0.917834 -4.224149 -8.406941 9.378074 1.088806 12.452226 -8.488539 -5.545403 0.000000 0.000000 0.000000 7.842341 0.201470 1.406725 -19.586599 -40.721841 2.358221 71.165662 -39.152975 -29.884779 0.000000 0.000000 0.000000 -16.763649 -7.382904 -1.492431 -2.652777 41.639338 -1.941532 -98.146295 7.139365 -0.239673 0.000000 0.000000 0.000000 
0.042793 0.958953 0.029909 1.175607 -4.340541 -1.620876 2.364800 -0.115253 -1.625306 0.093789 -0.230701 7.265080 -1.011802 -0.201474 4.596721 0.000000 0.000000 0.000000 -5.494403 0.204172 -0.920840 -1.883988 0.546420 5.941679 -0.286045 -2.622539 3.563572 0.000000 0.000000 0.000000 7.756885 -0.485821 4.602626 -1.500609 0.720538 -5.492959 -7.618413 9.314352 1.339553 11.632644 -8.054966 -4.773964 0.000000 0.000000 0.000000 15.470140 0.282033 2.718470 -7.795780 -46.892134 -1.399695 70.626637 -20.758972 -16.734287 0.000000 0.000000 0.000000 -22.079310 -6.889177 -1.030611 -6.082882 41.689791 -2.772916 -87.776050 3.179321 3.912918 0.000000 0.000000 0.000000 
0.040752 0.964633 0.028137 0.502217 -3.938989 -0.875447 3.015763 -0.066865 -0.932583 0.673718 -0.216738 3.697929 -1.925993 -0.971440 6.932436 0.000000 0.000000 0.000000 -4.246414 0.163706 -0.645095 -2.733890 0.539439 3.985033 0.056161 -2.732376 5.456357 0.000000 0.000000 0.000000 7.201743 -0.512085 4.824446 -1.251563 0.624111 -6.367682 -6.388292 8.576196 0.811221 11.494278 -8.287063 -3.583182 0.000000 0.000000 0.000000 22.314724 1.489538 3.520219 6.887586 -48.369729 -6.921391 66.011526 -2.941371 -4.060226 0.000000 0.000000 0.000000 -26.087913 -7.566650 -0.525459 -11.581337 42.297769 -4.471675 -78.255475 -1.753945 6.759693 0.000000 0.000000 0.000000 
0.038225 0.967178 0.026033 0.060455 -3.535590 0.332961 3.571419 -0.117977 -1.584711 0.427251 -0.096165 1.290758 -1.687544 0.061289 8.344836 0.000000 0.000000 0.000000 -3.247670 0.178277 -1.107351 -3.418678 0.540788 2.741741 0.454530 -2.231111 6.327545 0.000000 0.000000 0.000000 6.314433 -0.496219 4.719234 -0.521324 0.341059 -7.290840 -5.126236 7.785385 0.459051 10.289515 -7.815351 -1.797772 0.000000 0.000000 0.000000 27.565315 2.720323 4.031004 16.051063 -47.313303 -10.038568 61.593335 8.580024 2.954578 0.000000 0.000000 0.000000 -28.716079 -8.535795 -0.060622 -15.720786 43.134169 -5.972282 -71.751730 -3.766222 6.994930 0.000000 0.000000 0.000000 
0.035780 0.967606 0.023816 -0.377634 -3.419554 0.831681 3.948571 -0.131178 -1.762868 0.612372 -0.089936 0.505326 -1.926623 -0.369381 8.321953 0.000000 0.000000 0.000000 -2.652793 0.230562 -1.944767 -3.846699 0.648417 3.437124 0.305595 -2.601241 6.457145 0.000000 0.000000 0.000000 5.946188 -0.506879 4.888208 -0.077926 0.159570 -7.049100 -4.235774 7.031102 -0.407039 9.711483 -7.574692 -0.828850 0.000000 0.000000 0.000000 29.508717 4.304507 4.081064 22.550395 -45.841723 -11.806108 58.231191 12.331295 4.986157 0.000000 0.000000 0.000000 -29.162459 -9.874829 0.207533 -18.890749 43.632105 -7.257611 -67.838035 -3.756936 6.142069 0.000000 0.000000 0.000000 
0.033185 0.966234 0.021743 -0.317601 -3.090756 0.779165 3.638431 -0.125314 -1.588256 1.355628 -0.155385 -0.004385 -2.030343 -0.867657 7.491116 0.000000 0.000000 0.000000 -2.296976 0.206913 -1.734288 -4.754316 0.796436 3.730625 0.153203 -2.627768 5.843382 0.000000 0.000000 0.000000 5.207461 -0.536201 5.687087 0.530030 -0.065279 -7.642786 -4.030301 6.700405 -0.652548 8.755989 -6.926416 -0.304555 0.000000 0.000000 0.000000 30.804280 4.759517 4.241202 25.612418 -45.111863 -12.650529 56.100202 13.470119 5.403366 0.000000 0.000000 0.000000 -28.711729 -10.084462 0.207558 -18.916795 43.563089 -7.310407 -67.066249 -2.063258 4.934433 0.000000 0.000000 0.000000 
